<mxfile host="65bd71144e">
    <diagram id="_6_fxTTIoe9WjkEIhUAf" name="Page-1">
        <mxGraphModel dx="738" dy="665" grid="1" gridSize="10" guides="1" tooltips="1" connect="1" arrows="1" fold="1" page="1" pageScale="1" pageWidth="827" pageHeight="1169" background="none" math="0" shadow="0">
            <root>
                <mxCell id="0"/>
                <mxCell id="1" parent="0"/>
                <mxCell id="33" value="" style="group" parent="1" vertex="1" connectable="0">
                    <mxGeometry x="119" y="100" width="590" height="560" as="geometry"/>
                </mxCell>
                <mxCell id="29" value="Turnover Intention" style="square;whiteSpace=wrap;html=1;" parent="33" vertex="1">
                    <mxGeometry x="501" y="230" width="120" height="80" as="geometry"/>
                </mxCell>
                <mxCell id="35" value="" style="endArrow=classic;html=1;fillColor=#f5f5f5;strokeColor=#666666;exitX=0.5;exitY=1;exitDx=0;exitDy=0;solid=1;dashPattern=12 12;" parent="33" edge="1">
                    <mxGeometry width="50" height="50" relative="1" as="geometry">
                        <mxPoint x="441" y="50" as="sourcePoint"/>
                        <mxPoint x="441" y="220" as="targetPoint"/>
                    </mxGeometry>
                </mxCell>
                <mxCell id="65" value="Job Satisfaction" style="square;whiteSpace=wrap;html=1;" parent="33" vertex="1">
                    <mxGeometry x="281" y="445" width="120" height="80" as="geometry"/>
                </mxCell>
                <mxCell id="69" value="" style="endArrow=classic;html=1;fillColor=#f5f5f5;strokeColor=#666666;solid=1;exitX=0.328;exitY=0.01;exitDx=0;exitDy=0;exitPerimeter=0;" parent="33" edge="1">
                    <mxGeometry width="50" height="50" relative="1" as="geometry">
                        <mxPoint x="340.88" y="444.99999999999994" as="sourcePoint"/>
                        <mxPoint x="341" y="360" as="targetPoint"/>
                    </mxGeometry>
                </mxCell>
                <mxCell id="66" value="" style="endArrow=classic;html=1;fillColor=#f5f5f5;strokeColor=#666666;solid=1;exitX=0.659;exitY=0.01;exitDx=0;exitDy=0;exitPerimeter=0;" parent="33" edge="1">
                    <mxGeometry width="50" height="50" relative="1" as="geometry">
                        <mxPoint x="351.08000000000004" y="444.99999999999994" as="sourcePoint"/>
                        <mxPoint x="351" y="190" as="targetPoint"/>
                    </mxGeometry>
                </mxCell>
                <mxCell id="80" value="" style="endArrow=classic;html=1;fillColor=#f5f5f5;strokeColor=#666666;exitX=0.5;exitY=1;exitDx=0;exitDy=0;solid=1;dashPattern=12 12;" parent="33" edge="1">
                    <mxGeometry width="50" height="50" relative="1" as="geometry">
                        <mxPoint x="451.88" y="50" as="sourcePoint"/>
                        <mxPoint x="452" y="310" as="targetPoint"/>
                    </mxGeometry>
                </mxCell>
                <mxCell id="31" value="" style="endArrow=classic;html=1;fillColor=#f5f5f5;strokeColor=#666666;exitX=0.999;exitY=0.527;exitDx=0;exitDy=0;exitPerimeter=0;" parent="33" source="74" target="29" edge="1">
                    <mxGeometry width="50" height="50" relative="1" as="geometry">
                        <mxPoint x="280" y="427" as="sourcePoint"/>
                        <mxPoint x="484.0577081126237" y="541.2723165430693" as="targetPoint"/>
                    </mxGeometry>
                </mxCell>
                <mxCell id="63" value="" style="endArrow=classic;html=1;fillColor=#f5f5f5;strokeColor=#666666;entryX=1;entryY=0.5;entryDx=0;entryDy=0;exitX=0;exitY=0.5;exitDx=0;exitDy=0;" parent="33" source="34" target="61" edge="1">
                    <mxGeometry width="50" height="50" relative="1" as="geometry">
                        <mxPoint x="272" y="280" as="sourcePoint"/>
                        <mxPoint x="242" y="250" as="targetPoint"/>
                    </mxGeometry>
                </mxCell>
                <mxCell id="64" value="" style="endArrow=classic;html=1;fillColor=#f5f5f5;strokeColor=#666666;exitX=0;exitY=0.5;exitDx=0;exitDy=0;entryX=1;entryY=0.5;entryDx=0;entryDy=0;" parent="33" source="34" target="62" edge="1">
                    <mxGeometry width="50" height="50" relative="1" as="geometry">
                        <mxPoint x="271" y="310" as="sourcePoint"/>
                        <mxPoint x="241" y="280" as="targetPoint"/>
                    </mxGeometry>
                </mxCell>
                <mxCell id="61" value="Perceived Breach" style="square;whiteSpace=wrap;html=1;aspect=fixed;" parent="33" vertex="1">
                    <mxGeometry x="282" y="-80" width="80" height="80" as="geometry"/>
                </mxCell>
                <mxCell id="62" value="Violation" style="square;whiteSpace=wrap;html=1;aspect=fixed;" parent="33" vertex="1">
                    <mxGeometry x="281" y="20" width="80" height="80" as="geometry"/>
                </mxCell>
                <mxCell id="34" value="Psychological Contract" style="square;whiteSpace=wrap;html=1;" parent="33" vertex="1">
                    <mxGeometry x="392" y="-30" width="120" height="80" as="geometry"/>
                </mxCell>
                <mxCell id="85" value="Meeting Characteristics" style="square;whiteSpace=wrap;html=1;" vertex="1" parent="33">
                    <mxGeometry x="162" y="230" width="120" height="80" as="geometry"/>
                </mxCell>
                <mxCell id="87" value="" style="endArrow=classic;html=1;fillColor=#f5f5f5;strokeColor=#666666;exitX=0.5;exitY=1;exitDx=0;exitDy=0;solid=1;dashPattern=12 12;" edge="1" parent="33">
                    <mxGeometry width="50" height="50" relative="1" as="geometry">
                        <mxPoint x="241" y="310" as="sourcePoint"/>
                        <mxPoint x="241" y="390" as="targetPoint"/>
                    </mxGeometry>
                </mxCell>
                <mxCell id="88" value="" style="endArrow=classic;html=1;fillColor=#f5f5f5;strokeColor=#666666;solid=1;exitX=0.328;exitY=0.01;exitDx=0;exitDy=0;exitPerimeter=0;" edge="1" parent="33">
                    <mxGeometry width="50" height="50" relative="1" as="geometry">
                        <mxPoint x="241" y="230" as="sourcePoint"/>
                        <mxPoint x="241" y="140" as="targetPoint"/>
                    </mxGeometry>
                </mxCell>
                <mxCell id="107" value="H1" style="text;html=1;align=center;verticalAlign=middle;resizable=0;points=[];autosize=1;strokeColor=none;fillColor=none;" vertex="1" parent="33">
                    <mxGeometry x="291" y="140" width="40" height="30" as="geometry"/>
                </mxCell>
                <mxCell id="108" value="H2" style="text;html=1;align=center;verticalAlign=middle;resizable=0;points=[];autosize=1;strokeColor=none;fillColor=none;" vertex="1" parent="33">
                    <mxGeometry x="291" y="360" width="40" height="30" as="geometry"/>
                </mxCell>
                <mxCell id="115" value="H3" style="text;html=1;align=center;verticalAlign=middle;resizable=0;points=[];autosize=1;strokeColor=none;fillColor=none;" vertex="1" parent="33">
                    <mxGeometry x="231" y="190" width="40" height="30" as="geometry"/>
                </mxCell>
                <mxCell id="116" value="H4" style="text;html=1;align=center;verticalAlign=middle;resizable=0;points=[];autosize=1;strokeColor=none;fillColor=none;" vertex="1" parent="33">
                    <mxGeometry x="231" y="330" width="40" height="30" as="geometry"/>
                </mxCell>
                <mxCell id="119" value="H5" style="text;html=1;align=center;verticalAlign=middle;resizable=0;points=[];autosize=1;strokeColor=none;fillColor=none;" vertex="1" parent="33">
                    <mxGeometry x="411" y="110" width="40" height="30" as="geometry"/>
                </mxCell>
                <mxCell id="120" value="H6" style="text;html=1;align=center;verticalAlign=middle;resizable=0;points=[];autosize=1;strokeColor=none;fillColor=none;" vertex="1" parent="33">
                    <mxGeometry x="441" y="265" width="40" height="30" as="geometry"/>
                </mxCell>
                <mxCell id="122" value="b" style="text;html=1;align=center;verticalAlign=middle;resizable=0;points=[];autosize=1;strokeColor=none;fillColor=none;" vertex="1" parent="33">
                    <mxGeometry x="361" y="40" width="30" height="30" as="geometry"/>
                </mxCell>
                <mxCell id="123" value="H7" style="text;html=1;align=center;verticalAlign=middle;resizable=0;points=[];autosize=1;strokeColor=none;fillColor=none;" vertex="1" parent="33">
                    <mxGeometry x="341" y="200" width="40" height="30" as="geometry"/>
                </mxCell>
                <mxCell id="124" value="H8" style="text;html=1;align=center;verticalAlign=middle;resizable=0;points=[];autosize=1;strokeColor=none;fillColor=none;" vertex="1" parent="33">
                    <mxGeometry x="311" y="415" width="40" height="30" as="geometry"/>
                </mxCell>
                <mxCell id="20" value="" style="group" parent="1" vertex="1" connectable="0">
                    <mxGeometry x="50" y="100" width="280" height="310" as="geometry"/>
                </mxCell>
                <mxCell id="2" value="Physical Fatigue" style="square;whiteSpace=wrap;html=1;aspect=fixed;" parent="20" vertex="1">
                    <mxGeometry width="80" height="80" as="geometry"/>
                </mxCell>
                <mxCell id="3" value="Autonomy Thwarting" style="square;whiteSpace=wrap;html=1;aspect=fixed;" parent="20" vertex="1">
                    <mxGeometry y="90" width="80" height="80" as="geometry"/>
                </mxCell>
                <mxCell id="4" value="Relatedness Thwarting" style="square;whiteSpace=wrap;html=1;aspect=fixed;" parent="20" vertex="1">
                    <mxGeometry y="180" width="80" height="80" as="geometry"/>
                </mxCell>
                <mxCell id="8" value="Burnout" style="square;whiteSpace=wrap;html=1;" parent="20" vertex="1">
                    <mxGeometry x="160" y="90" width="120" height="80" as="geometry"/>
                </mxCell>
                <mxCell id="13" value="" style="endArrow=classic;html=1;entryX=1;entryY=0.5;entryDx=0;entryDy=0;fillColor=#f5f5f5;strokeColor=#666666;" parent="20" target="3" edge="1">
                    <mxGeometry width="50" height="50" relative="1" as="geometry">
                        <mxPoint x="160" y="130" as="sourcePoint"/>
                        <mxPoint x="210" y="80" as="targetPoint"/>
                    </mxGeometry>
                </mxCell>
                <mxCell id="14" value="" style="endArrow=classic;html=1;entryX=1;entryY=0.5;entryDx=0;entryDy=0;fillColor=#f5f5f5;strokeColor=#666666;" parent="20" target="4" edge="1">
                    <mxGeometry width="50" height="50" relative="1" as="geometry">
                        <mxPoint x="160" y="130" as="sourcePoint"/>
                        <mxPoint x="256.80934227475973" y="192.2345771766312" as="targetPoint"/>
                    </mxGeometry>
                </mxCell>
                <mxCell id="15" value="" style="endArrow=classic;html=1;entryX=1;entryY=0.5;entryDx=0;entryDy=0;fillColor=#f5f5f5;strokeColor=#666666;" parent="20" target="2" edge="1">
                    <mxGeometry width="50" height="50" relative="1" as="geometry">
                        <mxPoint x="160" y="130" as="sourcePoint"/>
                        <mxPoint x="256.80934227475973" y="192.2345771766312" as="targetPoint"/>
                    </mxGeometry>
                </mxCell>
                <mxCell id="91" value="a" style="text;html=1;align=center;verticalAlign=middle;resizable=0;points=[];autosize=1;strokeColor=none;fillColor=none;" vertex="1" parent="20">
                    <mxGeometry x="110" y="60" width="30" height="30" as="geometry"/>
                </mxCell>
                <mxCell id="102" value="b" style="text;html=1;align=center;verticalAlign=middle;resizable=0;points=[];autosize=1;strokeColor=none;fillColor=none;" vertex="1" parent="20">
                    <mxGeometry x="110" y="110" width="30" height="30" as="geometry"/>
                </mxCell>
                <mxCell id="103" value="c" style="text;html=1;align=center;verticalAlign=middle;resizable=0;points=[];autosize=1;strokeColor=none;fillColor=none;" vertex="1" parent="20">
                    <mxGeometry x="110" y="170" width="30" height="30" as="geometry"/>
                </mxCell>
                <mxCell id="109" value="Count" style="square;whiteSpace=wrap;html=1;aspect=fixed;" vertex="1" parent="20">
                    <mxGeometry x="150" y="210" width="50" height="50" as="geometry"/>
                </mxCell>
                <mxCell id="114" value="" style="endArrow=classic;html=1;fillColor=#f5f5f5;strokeColor=#666666;entryX=0.996;entryY=0.446;entryDx=0;entryDy=0;entryPerimeter=0;" edge="1" parent="20" target="111">
                    <mxGeometry width="50" height="50" relative="1" as="geometry">
                        <mxPoint x="230" y="270" as="sourcePoint"/>
                        <mxPoint x="210" y="310" as="targetPoint"/>
                    </mxGeometry>
                </mxCell>
                <mxCell id="117" value="a" style="text;html=1;align=center;verticalAlign=middle;resizable=0;points=[];autosize=1;strokeColor=none;fillColor=none;" vertex="1" parent="20">
                    <mxGeometry x="205" y="230" width="30" height="30" as="geometry"/>
                </mxCell>
                <mxCell id="70" value="" style="group" parent="1" vertex="1" connectable="0">
                    <mxGeometry x="50" y="370" width="280" height="280" as="geometry"/>
                </mxCell>
                <mxCell id="71" value="Competency Thwarting" style="square;whiteSpace=wrap;html=1;aspect=fixed;" parent="70" vertex="1">
                    <mxGeometry width="80" height="80" as="geometry"/>
                </mxCell>
                <mxCell id="72" value="Autonomy Thwarting" style="square;whiteSpace=wrap;html=1;aspect=fixed;" parent="70" vertex="1">
                    <mxGeometry y="90" width="80" height="80" as="geometry"/>
                </mxCell>
                <mxCell id="73" value="Relatedness Thwarting" style="square;whiteSpace=wrap;html=1;aspect=fixed;" parent="70" vertex="1">
                    <mxGeometry y="180" width="80" height="80" as="geometry"/>
                </mxCell>
                <mxCell id="74" value="Need Thwarting (Frustration)" style="square;whiteSpace=wrap;html=1;" parent="70" vertex="1">
                    <mxGeometry x="160" y="90" width="120" height="80" as="geometry"/>
                </mxCell>
                <mxCell id="75" value="" style="endArrow=classic;html=1;entryX=1;entryY=0.5;entryDx=0;entryDy=0;fillColor=#f5f5f5;strokeColor=#666666;" parent="70" target="72" edge="1">
                    <mxGeometry width="50" height="50" relative="1" as="geometry">
                        <mxPoint x="160" y="130" as="sourcePoint"/>
                        <mxPoint x="210" y="80" as="targetPoint"/>
                    </mxGeometry>
                </mxCell>
                <mxCell id="76" value="" style="endArrow=classic;html=1;entryX=1;entryY=0.5;entryDx=0;entryDy=0;fillColor=#f5f5f5;strokeColor=#666666;" parent="70" target="73" edge="1">
                    <mxGeometry width="50" height="50" relative="1" as="geometry">
                        <mxPoint x="160" y="130" as="sourcePoint"/>
                        <mxPoint x="256.80934227475973" y="192.2345771766312" as="targetPoint"/>
                    </mxGeometry>
                </mxCell>
                <mxCell id="77" value="" style="endArrow=classic;html=1;entryX=1;entryY=0.5;entryDx=0;entryDy=0;fillColor=#f5f5f5;strokeColor=#666666;" parent="70" target="71" edge="1">
                    <mxGeometry width="50" height="50" relative="1" as="geometry">
                        <mxPoint x="160" y="130" as="sourcePoint"/>
                        <mxPoint x="256.80934227475973" y="192.2345771766312" as="targetPoint"/>
                    </mxGeometry>
                </mxCell>
                <mxCell id="104" value="a" style="text;html=1;align=center;verticalAlign=middle;resizable=0;points=[];autosize=1;strokeColor=none;fillColor=none;" vertex="1" parent="70">
                    <mxGeometry x="110" y="60" width="30" height="30" as="geometry"/>
                </mxCell>
                <mxCell id="105" value="b" style="text;html=1;align=center;verticalAlign=middle;resizable=0;points=[];autosize=1;strokeColor=none;fillColor=none;" vertex="1" parent="70">
                    <mxGeometry x="110" y="110" width="30" height="30" as="geometry"/>
                </mxCell>
                <mxCell id="106" value="c" style="text;html=1;align=center;verticalAlign=middle;resizable=0;points=[];autosize=1;strokeColor=none;fillColor=none;" vertex="1" parent="70">
                    <mxGeometry x="110" y="170" width="30" height="30" as="geometry"/>
                </mxCell>
                <mxCell id="111" value="Time Spent" style="square;whiteSpace=wrap;html=1;aspect=fixed;" vertex="1" parent="70">
                    <mxGeometry x="150" y="10" width="50" height="50" as="geometry"/>
                </mxCell>
                <mxCell id="118" value="b" style="text;html=1;align=center;verticalAlign=middle;resizable=0;points=[];autosize=1;strokeColor=none;fillColor=none;" vertex="1" parent="70">
                    <mxGeometry x="205" y="10" width="30" height="30" as="geometry"/>
                </mxCell>
                <mxCell id="30" value="" style="endArrow=classic;html=1;fillColor=#f5f5f5;strokeColor=#666666;exitX=0.998;exitY=0.454;exitDx=0;exitDy=0;exitPerimeter=0;" parent="1" source="8" target="29" edge="1">
                    <mxGeometry width="50" height="50" relative="1" as="geometry">
                        <mxPoint x="330" y="224" as="sourcePoint"/>
                        <mxPoint x="449" y="180" as="targetPoint"/>
                    </mxGeometry>
                </mxCell>
                <mxCell id="113" value="" style="endArrow=classic;html=1;fillColor=#f5f5f5;strokeColor=#666666;entryX=1.012;entryY=0.551;entryDx=0;entryDy=0;exitX=0;exitY=0.5;exitDx=0;exitDy=0;entryPerimeter=0;" edge="1" parent="1" source="85" target="109">
                    <mxGeometry width="50" height="50" relative="1" as="geometry">
                        <mxPoint x="280" y="370" as="sourcePoint"/>
                        <mxPoint x="250" y="320" as="targetPoint"/>
                    </mxGeometry>
                </mxCell>
                <mxCell id="121" value="a" style="text;html=1;align=center;verticalAlign=middle;resizable=0;points=[];autosize=1;strokeColor=none;fillColor=none;" vertex="1" parent="1">
                    <mxGeometry x="480" y="50" width="30" height="30" as="geometry"/>
                </mxCell>
            </root>
        </mxGraphModel>
    </diagram>
</mxfile>